<?xml version="1.0" standalone="no"?>
<!DOCTYPE svg PUBLIC "-//W3C//DTD SVG 20010904//EN"
 "http://www.w3.org/TR/2001/REC-SVG-20010904/DTD/svg10.dtd">
<svg version="1.0" xmlns="http://www.w3.org/2000/svg"
 width="600.000000pt" height="448.000000pt" viewBox="0 0 600.000000 448.000000"
 preserveAspectRatio="xMidYMid meet">
<metadata>
Created by potrace 1.16, written by Peter Selinger 2001-2019
</metadata>
<g transform="translate(0.000000,448.000000) scale(0.100000,-0.100000)"
fill="#000000" stroke="none">
<path d="M20 4460 c-20 -20 -20 -33 -20 -1317 l0 -1296 52 -96 c115 -215 288
-482 415 -641 207 -259 320 -385 515 -575 146 -143 437 -396 572 -498 l50 -37
1414 0 1413 0 77 58 c262 196 616 528 886 832 51 57 218 272 256 330 8 13 24
35 36 49 44 55 145 212 228 356 l86 150 -2 1350 -3 1350 -1134 3 -1134 2 -86
-88 c-111 -115 -137 -144 -192 -217 -117 -153 -247 -361 -310 -495 -91 -193
-105 -220 -117 -218 -16 3 -18 8 -116 208 -42 85 -86 171 -98 190 -128 209
-253 373 -403 527 l-90 93 -1137 0 c-1125 0 -1138 0 -1158 -20z m1926 -1035
c290 -23 643 -247 860 -545 84 -116 81 -112 143 -230 27 -52 55 -96 63 -98 7
-1 33 36 62 90 103 195 173 288 325 436 119 116 170 153 302 219 227 115 316
137 549 134 130 -2 181 -5 215 -14 11 -3 34 -8 50 -13 64 -15 211 -77 251
-105 24 -16 45 -29 48 -29 12 0 151 -123 181 -160 11 -14 30 -35 42 -47 12
-13 20 -23 17 -23 -3 0 9 -20 26 -45 53 -77 125 -258 137 -343 12 -86 10 -367
-4 -441 -56 -308 -254 -713 -483 -990 -30 -36 -64 -77 -75 -91 -29 -36 -249
-256 -325 -325 -76 -70 -208 -176 -277 -223 -26 -19 -86 -61 -133 -94 -47 -33
-105 -72 -130 -86 -25 -14 -74 -44 -110 -68 -109 -70 -561 -295 -638 -316 -27
-7 -47 -3 -125 28 -90 36 -427 200 -437 213 -3 3 -18 12 -33 19 -27 12 -178
104 -297 181 -91 59 -319 230 -415 310 -190 160 -409 400 -536 586 -30 44 -57
82 -60 85 -9 9 -75 122 -127 220 -146 276 -235 621 -218 847 11 155 53 302
125 440 41 79 59 101 165 213 144 151 371 255 586 270 102 7 129 7 276 -5z"/>
<path d="M2106 2829 c-182 -28 -281 -77 -403 -199 -70 -70 -92 -100 -128 -176
-56 -117 -74 -185 -82 -310 -7 -122 8 -233 49 -359 16 -49 32 -100 34 -112 7
-34 133 -278 188 -363 86 -132 269 -337 411 -459 55 -47 109 -94 120 -104 11
-10 94 -68 184 -129 161 -109 241 -156 371 -218 36 -18 88 -43 117 -57 l51
-25 84 37 c124 55 415 218 470 264 7 6 49 37 93 68 137 98 226 173 340 288 97
97 140 151 270 328 93 127 213 395 247 549 30 137 32 347 4 458 -30 121 -102
248 -189 333 -50 49 -201 144 -240 151 -12 3 -22 5 -22 6 0 3 -28 9 -115 25
-198 37 -439 -30 -610 -170 -124 -102 -233 -233 -292 -354 -36 -72 -36 -72
-88 29 -168 329 -547 548 -864 499z m826 -1159 c20 -6 55 -28 76 -48 l40 -38
40 37 c50 47 106 64 164 49 142 -39 154 -230 23 -382 -44 -52 -149 -131 -196
-148 -33 -12 -41 -11 -80 9 -54 27 -111 68 -122 87 -4 8 -15 14 -22 14 -8 0
-15 7 -15 15 0 8 -9 20 -20 27 -11 7 -20 17 -20 21 0 5 -6 15 -14 23 -25 24
-59 143 -53 185 9 66 38 112 87 137 50 25 60 26 112 12z"/>
<path d="M2786 4448 c9 -18 20 -35 23 -38 12 -10 136 -254 186 -365 l27 -60
16 35 c44 97 164 332 196 385 20 33 36 63 36 68 0 4 -113 7 -250 7 l-251 0 17
-32z"/>
<path d="M0 445 l0 -445 422 0 421 0 -24 27 c-13 14 -42 42 -64 62 -139 126
-465 454 -465 467 0 1 -29 33 -65 71 -36 37 -65 74 -65 81 0 6 -4 12 -9 12 -5
0 -40 38 -77 85 -37 47 -69 85 -71 85 -1 0 -3 -200 -3 -445z"/>
<path d="M5964 808 c-17 -18 -52 -60 -79 -93 -144 -176 -419 -462 -624 -648
l-73 -67 406 0 406 0 0 420 c0 231 -1 420 -3 420 -2 0 -17 -15 -33 -32z"/>
</g>
</svg>
