<svg version="1.1" id="Layer_1" xmlns="http://www.w3.org/2000/svg" xmlns:xlink="http://www.w3.org/1999/xlink" x="0px" y="0px"
	 width="100%" viewBox="0 0 816 576" enable-background="new 0 0 816 576" xml:space="preserve">
<path fill="#000000" opacity="1.000000" stroke="none" 
	d="
M483.606079,525.757507 
	C462.484955,534.045288 441.108673,538.790405 418.668518,539.548279 
	C369.346893,541.213928 325.969421,526.215454 288.489716,494.345673 
	C256.087524,466.793335 236.020615,431.757172 228.114014,390.087677 
	C221.264267,353.987976 225.252960,318.747559 240.441177,285.224579 
	C262.959717,235.522278 300.541138,202.172363 352.168091,184.662430 
	C355.553955,183.514084 356.854462,181.829697 356.843933,178.213501 
	C356.749084,145.549057 356.772888,112.883972 356.898804,80.219604 
	C356.912292,76.722115 355.623199,75.101715 352.304230,74.371246 
	C347.075592,73.220474 342.094025,71.278534 337.529358,68.446167 
	C330.561249,64.122467 330.512390,58.982513 337.440918,54.700508 
	C346.130280,49.330276 356.001648,47.460247 365.828949,45.723267 
	C378.787476,43.432838 391.884094,42.772896 405.054871,42.488777 
	C427.242065,42.010143 449.200928,43.203533 470.773804,48.737480 
	C476.265381,50.146194 481.642975,51.918884 486.336914,55.296555 
	C492.202789,59.517544 492.211212,63.805531 486.320160,67.841515 
	C481.141724,71.389244 475.277496,73.419601 469.256439,74.659225 
	C465.041443,75.527023 464.084229,77.568489 464.101227,81.515495 
	C464.239075,113.513077 464.245880,145.511627 464.135345,177.509323 
	C464.122955,181.096222 465.251923,182.837082 468.726410,183.938950 
	C491.515076,191.165909 512.337036,202.165115 530.773560,217.433533 
	C565.867981,246.497391 587.947510,283.282440 595.346375,328.404694 
	C603.424255,377.667816 592.325928,422.629028 563.375488,463.084656 
	C543.015137,491.536438 516.232300,512.132751 483.606079,525.757507 
M558.823242,427.395508 
	C574.271790,391.256836 577.542725,353.852966 567.360718,316.082825 
	C551.434998,257.006256 514.531921,216.692871 455.936218,197.262741 
	C451.866821,195.913345 450.570343,194.075729 450.588074,189.888565 
	C450.740051,154.058395 450.687836,118.227318 450.659424,82.396538 
	C450.657288,79.742363 450.770020,76.982872 450.111420,74.459770 
	C449.186584,70.917015 450.659851,69.540352 453.754181,68.891350 
	C457.678284,68.068291 461.550049,66.999702 465.044403,65.002312 
	C469.648987,62.370281 469.645142,59.656319 465.081207,57.019367 
	C460.545227,54.398533 455.475250,53.313564 450.402618,52.373264 
	C428.954895,48.397549 407.352356,48.429512 385.753113,50.508266 
	C377.347260,51.317268 368.867950,52.475048 361.001617,55.954163 
	C358.622253,57.006512 355.572510,57.969376 355.597961,61.165714 
	C355.621704,64.147598 358.512054,65.436516 360.817444,65.785362 
	C370.132111,67.194893 370.727295,72.721100 370.587128,81.007088 
	C369.975555,117.160789 370.256531,153.331192 370.428040,189.494507 
	C370.449036,193.923096 369.119202,196.008881 364.774292,197.186722 
	C342.504456,203.223709 322.691986,214.257385 305.682465,229.569962 
	C260.450134,270.289703 241.793365,321.628143 248.652466,381.711304 
	C252.849731,418.477783 268.252075,450.908905 294.293091,477.389526 
	C337.106598,520.925781 388.863220,537.431152 448.466583,522.737305 
	C500.530731,509.902069 536.261108,476.406311 558.823242,427.395508 
z"/>
<path fill="#000000" opacity="1.000000" stroke="none" 
	d="
M447.531311,473.473694 
	C450.055328,471.884033 452.791229,471.254608 454.287109,469.090363 
	C454.619720,467.699310 453.834167,466.992126 453.142792,466.296539 
	C443.751343,456.847870 434.273865,447.483215 424.983978,437.935974 
	C421.873291,434.739136 419.806061,434.801483 417.088074,438.481964 
	C411.851532,445.572906 406.163055,452.328522 400.766235,459.303833 
	C399.390594,461.081787 397.518219,462.700012 397.520050,465.499054 
	C401.585785,468.237610 407.086639,467.695892 410.961700,471.307526 
	C384.800873,473.383362 358.763641,472.047089 332.596039,470.872070 
	C332.821472,468.263306 334.525116,468.452972 335.610931,468.156342 
	C338.006348,467.501892 340.468048,467.020782 342.932831,466.702179 
	C351.749207,465.562469 358.979736,462.621582 364.951630,455.012085 
	C374.801880,442.460663 385.714172,430.734619 394.791229,417.542908 
	C395.719147,416.194397 396.591431,414.807617 397.827484,412.923462 
	C391.212860,406.399017 384.529999,400.170105 378.268311,393.543182 
	C369.588684,384.357239 361.059235,375.034729 352.145538,366.066193 
	C349.782288,363.688385 347.341003,362.966370 344.175720,362.877991 
	C334.865204,362.617889 325.631989,360.989838 316.285126,361.165009 
	C315.712952,361.175781 315.131805,360.705902 314.507660,360.439514 
	C317.056976,356.774078 407.850586,341.339081 413.569702,343.874420 
	C406.617554,348.476196 397.775085,348.026520 391.382111,353.993835 
	C395.985565,360.123566 400.437195,366.267212 405.128235,372.222321 
	C408.313721,376.266113 411.815155,380.062714 415.213257,383.936615 
	C417.317322,386.335327 419.721741,386.318329 421.580353,383.898407 
	C429.993195,372.944794 440.301514,363.601868 448.299500,352.307312 
	C448.751556,351.668945 449.024963,350.904053 449.477173,350.008606 
	C443.427917,346.228271 435.515106,347.867706 430.394531,342.129700 
	C459.655304,341.272003 488.392181,345.281891 517.137756,350.524384 
	C513.117432,352.756531 508.849640,353.134491 504.563934,353.295135 
	C495.918091,353.619141 487.244537,352.783356 478.613220,354.064972 
	C476.310852,354.406860 474.591736,355.152435 473.236694,357.125427 
	C463.716614,370.986816 452.838715,383.878967 443.891479,398.148895 
	C441.866364,401.378784 440.100922,404.770447 438.131195,408.036530 
	C436.929626,410.028839 437.761993,411.529968 439.072052,412.961456 
	C451.531555,426.575500 462.430328,441.475677 474.229187,455.634338 
	C477.064117,459.036285 480.275574,460.236633 484.778595,459.295624 
	C490.617126,458.075470 496.591278,457.437805 502.535248,456.821686 
	C504.877289,456.578979 507.458679,456.079437 509.724915,457.686005 
	C506.896881,461.758850 440.081085,483.672852 433.237030,482.472748 
	C437.414337,478.029877 442.798157,476.545685 447.531311,473.473694 
z"/>
<path fill="#000000" opacity="1.000000" stroke="none" 
	d="
M502.499420,281.650146 
	C506.002716,292.737915 508.211487,303.816040 512.248047,314.270111 
	C521.288879,312.082336 521.398438,311.940826 520.792725,303.355743 
	C520.231445,295.400177 519.589172,287.449585 519.119202,279.488708 
	C518.892334,275.644501 518.163574,272.283813 513.636108,271.325226 
	C515.892578,268.625977 526.953430,266.572021 533.159058,267.449951 
	C533.375244,268.438416 532.827393,269.263519 532.055359,269.424530 
	C525.820190,270.724487 525.895081,275.289581 526.173706,280.184570 
	C526.626648,288.142853 525.927185,296.131958 527.262085,304.083344 
	C528.324829,310.413422 528.501099,310.512756 536.178162,310.990234 
	C541.505798,311.321594 542.226135,308.067078 542.612122,304.216125 
	C542.797913,302.362793 543.246948,300.671265 544.206970,298.975983 
	C546.877808,302.600403 548.628845,319.700562 546.781433,322.903809 
	C545.836670,322.990906 544.986267,322.566528 544.800354,321.739380 
	C543.432739,315.652527 538.828979,315.912323 534.258972,316.413635 
	C528.947021,316.996399 523.636047,317.122620 518.310547,316.935455 
	C516.475769,316.870972 514.187256,316.391571 513.658691,318.619598 
	C513.042786,321.215515 515.674377,321.097168 517.271301,321.731049 
	C517.702026,321.902008 518.075745,322.216522 518.515198,322.489777 
	C515.718628,324.668457 508.335205,325.100952 502.071167,323.304565 
	C509.841339,319.114502 504.915405,313.546265 503.765198,308.743744 
	C502.615540,303.943359 501.602173,299.101227 500.378784,294.317078 
	C499.331177,290.220367 497.914520,286.218079 495.647217,282.297729 
	C495.216797,287.516541 494.825500,292.738983 494.340118,297.952698 
	C494.081818,300.727173 494.574860,303.510284 493.556580,306.297882 
	C492.456940,309.308167 493.645813,311.751068 497.775421,313.199097 
	C492.327209,315.256653 487.815399,315.597260 482.204834,314.755280 
	C491.453644,308.303345 488.302002,299.533508 487.913940,291.537476 
	C487.716370,287.466339 488.265167,283.484863 489.028870,279.695343 
	C489.934174,275.203186 488.597443,273.531494 484.515106,272.805359 
	C483.110718,272.555573 481.537933,272.223511 480.546631,270.908630 
	C483.220398,269.552368 502.715912,268.765503 506.102020,269.988739 
	C504.748108,272.147491 500.468933,270.701843 500.633331,274.020905 
	C500.754059,276.458740 501.768341,278.852295 502.499420,281.650146 
z"/>
<path fill="#000000" opacity="1.000000" stroke="none" 
	d="
M430.037964,310.742798 
	C426.708191,311.531647 423.768890,311.647552 420.801239,310.771667 
	C425.681641,300.542358 419.622131,291.140533 418.662903,280.990265 
	C413.853241,287.214661 411.077423,294.852020 404.556824,299.729034 
	C400.882172,298.035980 400.985748,292.656647 396.262573,290.924591 
	C394.395599,296.292603 396.085083,301.363861 395.832306,306.308929 
	C395.774048,307.449005 396.359131,308.634857 396.241180,309.756836 
	C395.631561,315.556946 397.127502,319.628418 403.882996,319.814240 
	C404.514313,319.831573 405.145721,320.249329 405.039490,321.935486 
	C399.058777,322.847687 392.893097,323.788086 386.727417,324.728485 
	C386.268433,324.423035 385.809479,324.117584 385.350494,323.812134 
	C395.021362,320.189484 391.838440,313.060852 391.861725,306.452576 
	C391.896484,296.586212 390.035950,286.939270 389.468048,277.158661 
	C389.298279,274.234802 388.926300,270.891449 383.412445,270.632538 
	C387.868134,266.884338 392.169556,266.845581 396.112274,265.619171 
	C398.613647,274.631134 401.189758,283.225861 406.088593,292.100250 
	C409.964294,283.938568 416.128235,277.980865 416.503326,268.992035 
	C419.942474,268.544403 423.627380,268.064819 427.312286,267.585236 
	C421.671112,271.875793 425.213074,277.112701 425.533112,281.622833 
	C426.071960,289.216705 427.601532,296.736359 428.273468,304.326263 
	C428.643158,308.501740 431.847015,307.322418 434.101044,307.760773 
	C433.969116,310.735657 431.755890,310.013031 430.037964,310.742798 
z"/>
<path fill="#000000" opacity="1.000000" stroke="none" 
	d="
M346.755066,321.733948 
	C348.788147,323.581757 347.747437,324.247955 346.038605,324.203888 
	C344.059082,324.152802 342.086853,323.752716 340.115295,323.476593 
	C335.756012,322.866058 331.401337,322.937286 326.851318,323.358154 
	C327.248260,322.877991 327.604004,322.021942 328.048187,321.973267 
	C336.534851,321.043640 335.150116,314.980957 334.600922,309.410767 
	C334.390076,307.272034 333.899139,305.161987 333.573608,303.033112 
	C333.379822,301.766083 332.820374,300.541656 331.500885,300.614197 
	C327.533325,300.832336 323.458557,300.843445 319.662567,301.838867 
	C317.055695,302.522491 318.397400,305.589478 318.221558,307.612518 
	C317.880615,311.535583 317.695892,315.485199 323.685516,315.951416 
	C318.652527,319.375549 313.240936,319.417297 307.197784,319.945404 
	C315.561493,311.352234 310.988403,301.151398 312.401428,291.941406 
	C312.425507,291.784332 312.340302,291.613678 312.333496,291.448242 
	C312.203979,288.291626 312.111206,285.133148 311.944641,281.978516 
	C311.698273,277.311401 305.903534,280.862793 304.828674,276.731934 
	C310.485687,276.731934 316.060822,276.731934 321.635986,276.731934 
	C312.253052,281.183777 318.238281,288.869171 317.376862,294.874146 
	C317.295227,295.443359 317.597687,296.364655 318.035492,296.664429 
	C321.578644,299.090668 325.082428,296.368011 328.635956,296.372894 
	C330.614655,296.375610 332.530914,295.197418 332.645538,292.683533 
	C332.857727,288.030243 332.977356,283.372528 333.213440,278.720612 
	C333.479584,273.475800 329.547302,272.369049 325.279175,271.348724 
	C328.382355,269.546417 337.299652,269.045319 341.187195,270.181213 
	C339.040100,276.957275 340.638184,283.982910 339.818207,290.874756 
	C338.934021,298.306305 339.402466,305.792084 339.808319,313.296997 
	C340.082214,318.362732 342.145905,320.483490 346.755066,321.733948 
z"/>
<path fill="#000000" opacity="1.000000" stroke="none" 
	d="
M380.377136,304.913330 
	C381.125214,311.473999 381.520233,317.916443 381.931366,324.621918 
	C379.147797,324.104889 378.795258,322.544891 378.757935,321.120636 
	C378.646576,316.866150 376.406525,316.306213 372.759979,316.966095 
	C366.719727,318.059082 360.616760,318.809357 354.534607,319.664032 
	C353.126770,319.861877 351.598541,320.547150 349.822144,318.419464 
	C357.379578,315.098755 355.339020,308.828491 354.936951,302.720367 
	C354.467560,295.589447 354.553864,288.406036 354.738464,281.254120 
	C354.846863,277.054871 354.263092,273.915649 349.128296,273.985291 
	C348.845215,273.989166 348.514221,273.723846 348.284851,273.501862 
	C348.060272,273.284515 347.937195,272.962311 347.515900,272.268188 
	C353.184998,269.433990 359.402832,269.373688 365.317749,268.893646 
	C369.959900,268.516937 373.475586,267.932404 374.527008,262.785187 
	C374.585510,262.498596 374.890503,262.210419 375.154572,262.032623 
	C375.410645,261.860199 375.761902,261.829102 376.537872,261.595520 
	C380.347534,269.768860 376.586151,277.799835 376.441742,285.898956 
	C374.021881,284.382446 373.794037,282.148346 373.621490,279.919861 
	C373.280548,275.516663 370.317352,275.261932 366.854248,275.355713 
	C363.301788,275.451874 361.221069,276.608917 361.154663,280.577637 
	C361.071442,285.550873 360.528778,290.515533 360.402832,295.489410 
	C360.357147,297.294098 359.418060,299.962372 362.249695,300.470764 
	C364.982086,300.961304 368.037506,301.234589 369.563019,297.885162 
	C369.892120,297.162567 369.906677,296.263458 371.275909,295.951691 
	C372.844666,299.605652 372.534149,303.171997 371.124969,307.615387 
	C369.074615,304.104736 366.286652,305.166351 363.673248,305.320496 
	C361.116425,305.471283 360.227051,307.011078 360.361481,309.352234 
	C360.502258,311.803284 362.362518,311.627686 364.020660,311.640289 
	C370.344910,311.688385 376.502808,311.313568 380.377136,304.913330 
z"/>
<path fill="#000000" opacity="1.000000" stroke="none" 
	d="
M296.216614,264.773102 
	C296.253571,269.791809 296.253571,274.397217 296.253571,278.930847 
	C293.271454,279.573883 294.040344,276.387787 292.302612,276.157318 
	C277.636719,289.054260 280.624390,311.191162 298.369202,319.890503 
	C301.609528,317.706665 300.137512,311.912079 306.667328,310.302429 
	C300.989746,316.526611 301.834412,323.422424 300.234894,329.913361 
	C298.189117,325.807098 294.372162,324.664337 291.016693,322.685516 
	C284.206207,318.669037 278.813263,312.952698 274.400360,306.419159 
	C272.685455,303.880157 272.381256,300.993683 273.423767,297.841614 
	C276.383820,288.891693 280.608307,280.732758 286.898438,273.631012 
	C289.987061,270.143860 294.261932,267.354706 294.189026,261.878204 
	C295.766449,262.386658 295.986877,263.364044 296.216614,264.773102 
z"/>
<path fill="#000000" opacity="1.000000" stroke="none" 
	d="
M461.267670,301.391327 
	C462.290375,306.532501 465.976776,307.854004 470.036194,308.626801 
	C472.851257,309.162689 473.761932,307.125488 474.638428,305.055054 
	C475.441650,303.157562 475.754028,300.792969 479.577545,300.313049 
	C479.533813,308.405090 477.828033,315.772247 475.848297,323.180145 
	C474.862183,322.925598 474.605682,322.929871 474.565643,322.838928 
	C472.368683,317.845734 467.248047,312.670898 462.251373,310.421600 
	C454.390320,306.882904 452.366699,303.173340 453.828888,294.667816 
	C455.216095,286.598358 457.893646,279.304382 465.306244,274.570404 
	C469.283081,272.030640 472.820404,268.899384 473.278625,263.338928 
	C473.813110,263.539978 474.347595,263.741028 474.882080,263.942047 
	C475.179382,269.705750 475.476685,275.469452 475.785736,281.460968 
	C471.675598,281.435852 472.733032,277.713043 470.600494,275.804749 
	C464.021942,282.989899 460.908936,291.296906 461.267670,301.391327 
z"/>
<path fill="#000000" opacity="1.000000" stroke="none" 
	d="
M438.310760,296.549683 
	C437.717987,292.496887 437.039246,288.894928 436.789734,285.263489 
	C436.471130,280.625854 436.162659,276.187744 429.885773,275.321777 
	C436.274658,273.604187 442.417236,272.413422 449.308594,273.328430 
	C441.399231,275.912415 443.295227,282.080383 443.432648,287.442719 
	C443.645294,295.742920 444.266632,304.036041 444.331146,312.335144 
	C444.360443,316.100830 446.287994,317.117615 449.930328,317.257660 
	C444.653748,320.539124 439.361938,320.526031 433.902863,320.972565 
	C434.026642,319.872040 434.007294,319.303528 434.104797,319.282684 
	C440.092102,318.005249 440.589905,313.916168 439.735168,308.853668 
	C439.073669,304.935669 438.839600,300.945526 438.310760,296.549683 
z"/>
</svg>