<svg width="78" height="70" viewBox="0 0 78 70" fill="none" xmlns="http://www.w3.org/2000/svg">
<path fill-rule="evenodd" clip-rule="evenodd" d="M2.41409 31.8493C1.11019 28.402 -0.223174 22.9218 1.44385 16.7131C3.28443 9.85796 7.93702 5.16411 12.9435 2.45905C21.6896 -2.26657 32.6106 0.992685 37.3362 9.7388C38.0911 11.1359 38.6422 12.5885 38.9998 14.0625C39.4003 12.4098 40.0436 10.7863 40.9427 9.24139C45.943 0.649382 56.9618 -2.26226 65.5538 2.73807C70.3788 5.54612 74.7024 10.1479 76.5347 16.6233C78.227 22.6037 77.158 27.9697 75.9272 31.5475C70.1944 48.2122 51.3806 60.3782 39.5583 69.1431C27.6949 60.4433 8.61741 48.2496 2.41409 31.8493Z" fill="#1E1E1E"/>
</svg>
